<?xml version="1.0" standalone="no"?>
<!DOCTYPE svg PUBLIC "-//W3C//DTD SVG 20010904//EN"
 "http://www.w3.org/TR/2001/REC-SVG-20010904/DTD/svg10.dtd">
<svg version="1.0" xmlns="http://www.w3.org/2000/svg"
 width="900.000000pt" height="900.000000pt" viewBox="0 0 900.000000 900.000000"
 preserveAspectRatio="xMidYMid meet">
<metadata>
Created by potrace 1.11, written by Peter Selinger 2001-2013
</metadata>
<g transform="translate(0.000000,900.000000) scale(0.100000,-0.100000)"
fill="#000000" stroke="none">
<path d="M0 8586 l0 -415 53 -19 c88 -33 976 -371 1082 -412 55 -21 239 -91
410 -155 170 -65 348 -134 395 -155 l85 -37 16 26 c9 14 45 53 79 86 69 67 90
101 90 143 0 71 66 164 125 177 51 11 105 37 105 51 0 7 -15 24 -32 38 -18 14
-134 103 -258 198 -225 173 -634 490 -969 750 l-176 138 -502 0 -503 0 0 -414z"/>
<path d="M1911 8981 c8 -11 185 -205 394 -432 373 -406 380 -412 383 -379 2
23 15 47 35 69 32 33 32 33 107 28 l75 -6 49 56 49 55 63 -4 c61 -4 65 -3 106
32 l42 37 -134 281 -133 282 -525 0 c-514 0 -524 0 -511 -19z"/>
<path d="M3392 8988 c3 -7 26 -89 53 -183 27 -93 50 -172 51 -174 2 -2 29 11
61 30 157 89 223 124 316 165 153 69 208 84 314 84 l93 0 37 -36 c46 -44 92
-74 114 -74 9 0 44 14 79 32 50 26 78 33 143 38 l81 5 13 44 c7 24 15 52 18
62 6 18 -16 19 -685 19 -549 0 -691 -3 -688 -12z"/>
<path d="M5203 8963 c-8 -21 -26 -59 -39 -85 l-24 -47 68 -22 c180 -60 375
-158 504 -253 l87 -65 54 57 c30 31 111 120 182 197 70 77 150 163 177 192 26
28 48 54 48 57 0 3 -234 6 -521 6 l-520 0 -16 -37z"/>
<path d="M6959 8828 c-123 -94 -280 -214 -349 -267 -69 -52 -166 -127 -216
-166 -49 -38 -118 -91 -152 -118 l-62 -47 77 -63 c80 -66 130 -121 243 -270
61 -81 101 -116 240 -215 l46 -32 159 61 c88 34 302 115 475 181 173 65 434
164 580 220 146 55 312 118 370 140 58 22 197 75 310 118 113 43 231 88 263
100 l57 21 0 255 0 254 -909 0 -909 0 -223 -172z"/>
<path d="M4060 8794 c-220 -73 -687 -344 -858 -498 -40 -36 -81 -66 -91 -66
-11 0 -28 12 -39 27 l-20 28 -21 -25 c-11 -14 -26 -42 -32 -63 -17 -52 -33
-64 -65 -46 -23 12 -28 11 -39 -5 -13 -17 -15 -17 -43 4 -32 24 -67 24 -67 0
0 -8 17 -26 38 -39 34 -23 37 -27 31 -60 -10 -61 -9 -61 -76 -61 -73 0 -181
-16 -220 -31 -31 -13 -36 -40 -17 -83 19 -41 4 -68 -53 -99 -29 -15 -73 -33
-98 -40 -36 -10 -49 -21 -67 -52 -13 -24 -23 -57 -23 -82 0 -34 -8 -51 -44
-95 -24 -30 -56 -62 -70 -71 -36 -24 -71 -92 -86 -165 -18 -86 -7 -311 26
-572 23 -184 27 -256 34 -690 13 -808 13 -1025 -2 -1023 -7 1 -36 7 -64 14
-100 22 -220 -25 -264 -102 -11 -21 -23 -60 -27 -87 -7 -66 18 -121 94 -203
79 -85 93 -107 93 -147 0 -59 -30 -152 -81 -254 -51 -101 -89 -232 -89 -303 0
-60 24 -137 64 -209 61 -110 146 -162 245 -153 31 3 67 9 80 13 l24 7 -6 -64
c-4 -35 -14 -131 -22 -214 -8 -82 -18 -304 -22 -491 -6 -353 -4 -377 38 -519
5 -16 29 -109 55 -205 116 -444 223 -726 345 -907 51 -75 51 -77 35 -102 -38
-60 -128 -246 -150 -313 l-25 -73 -73 -11 c-116 -16 -167 -34 -202 -70 -31
-31 -32 -32 -84 -23 -29 6 -72 9 -95 7 -42 -3 -42 -3 -42 -43 l0 -40 -135 -5
-135 -5 2 -33 c2 -45 8 -49 46 -29 73 39 137 30 137 -19 0 -38 -52 -82 -121
-102 -43 -12 -59 -22 -59 -34 0 -10 6 -18 13 -18 9 0 8 -3 -2 -9 -11 -7 -10
-11 7 -20 31 -16 51 -14 99 14 31 19 43 22 43 12 0 -34 -101 -86 -168 -87 -77
0 -113 61 -76 131 8 17 14 32 12 34 -8 7 -128 -56 -136 -72 -22 -43 17 -57 61
-23 33 26 34 26 34 -12 0 -18 -2 -27 -4 -21 -3 9 -16 5 -41 -12 -57 -39 -142
-30 -142 15 0 19 -2 19 -32 6 -18 -8 -132 -57 -253 -110 l-220 -96 183 0 c120
0 181 3 177 10 -3 6 -1 10 4 10 6 0 11 -4 11 -9 0 -6 113 -10 284 -11 222 0
285 2 289 12 4 10 6 10 6 0 1 -10 146 -12 701 -12 385 0 700 3 700 5 0 3 -17
12 -37 21 l-38 15 25 15 c16 10 18 13 5 8 -31 -11 -66 -6 -94 14 -45 31 -142
82 -158 82 -8 0 -35 21 -59 47 l-43 48 -35 -34 c-19 -19 -33 -38 -30 -42 2 -4
-4 -8 -13 -9 -10 0 -33 -1 -52 -3 -75 -5 -64 60 20 112 27 17 49 34 49 38 -1
4 -16 15 -35 24 -33 16 -35 15 -48 -5 -8 -11 -27 -54 -42 -93 l-29 -73 -43 0
c-24 0 -43 4 -43 8 0 5 9 34 19 65 17 47 17 57 5 57 -7 0 -14 5 -14 10 0 6 8
10 18 10 11 0 24 18 39 55 25 59 29 95 13 95 -5 0 -10 5 -10 12 0 6 -8 20 -17
30 -14 16 -15 22 -4 39 11 19 10 20 -8 14 -15 -4 -23 -1 -27 10 -9 23 4 31 26
17 17 -10 20 -10 20 4 0 9 -5 12 -12 8 -8 -5 -9 -2 -5 9 3 9 2 19 -2 22 -5 3
-11 -2 -15 -10 -8 -23 -26 -18 -26 8 0 13 -5 28 -11 34 -11 11 -2 83 11 83 4
0 13 14 19 30 5 17 15 30 21 30 6 0 8 4 5 10 -8 13 24 60 41 60 8 0 14 5 14
11 0 5 5 7 10 4 6 -3 10 1 10 10 0 11 -5 15 -14 12 -11 -5 -12 0 -3 24 13 33
28 40 20 9 -3 -11 1 -27 8 -36 11 -14 10 -19 -7 -33 -11 -9 -38 -41 -59 -71
-31 -44 -39 -64 -39 -100 -1 -41 1 -45 22 -43 13 2 25 -4 28 -12 4 -8 10 -12
15 -9 5 2 4 13 -3 23 -8 13 -8 23 0 37 11 18 12 18 18 -4 6 -20 11 -22 38 -16
17 4 36 14 43 23 9 12 12 13 13 2 0 -10 4 -11 13 -3 9 8 22 -3 51 -44 22 -30
50 -61 63 -69 13 -9 23 -22 23 -30 0 -8 7 -15 15 -15 9 0 12 -6 9 -15 -4 -8
-1 -15 5 -15 6 0 11 5 11 12 0 6 13 -3 28 -20 16 -18 34 -32 40 -32 6 0 26 -9
45 -20 19 -11 41 -18 50 -14 8 3 24 1 34 -5 11 -5 24 -6 30 -3 7 4 -20 24 -60
45 -143 75 -246 181 -292 297 -21 56 -45 144 -45 170 0 18 3 18 46 -5 57 -30
123 -33 147 -7 15 17 11 24 -77 112 -215 219 -359 466 -476 819 -119 358 -155
597 -153 1006 1 325 13 436 87 790 36 177 59 359 51 413 -4 26 -8 88 -9 137
-2 81 -6 97 -38 160 -50 100 -161 288 -202 343 -74 102 -118 119 -124 49 -4
-41 17 -59 43 -37 8 6 18 9 24 6 9 -6 233 -421 247 -459 3 -9 3 -38 -1 -63 -6
-44 -7 -45 -36 -39 -27 6 -29 4 -29 -22 0 -26 -8 -33 -72 -67 -78 -41 -128
-82 -128 -103 0 -7 9 -17 19 -23 15 -7 36 -3 93 21 40 17 84 33 97 36 21 5 23
3 18 -18 -4 -13 -19 -76 -33 -139 -26 -112 -53 -165 -104 -207 -22 -18 -81
-16 -111 5 -75 51 -159 186 -159 256 0 53 31 154 64 211 73 124 106 226 106
328 0 67 -28 126 -114 242 -69 93 -71 103 -39 153 21 34 89 62 152 62 55 0 55
0 122 -70 37 -38 73 -70 79 -70 7 0 20 -10 29 -21 16 -20 18 -20 33 -5 10 10
30 15 53 13 40 -2 42 -1 75 75 16 38 23 45 40 41 11 -3 28 1 38 9 9 9 31 20
47 25 31 10 50 37 59 84 11 52 159 92 163 44 1 -11 6 -139 13 -285 13 -323 19
-431 26 -442 3 -4 27 -8 54 -8 58 0 60 -4 60 -113 0 -122 3 -127 61 -127 44 0
51 -3 59 -26 6 -14 10 -36 10 -49 0 -13 4 -26 9 -29 8 -5 566 14 856 29 55 2
165 7 245 11 80 3 148 9 152 12 4 4 8 30 10 57 l3 50 50 5 50 5 -3 113 -4 112
50 0 c28 0 54 5 59 13 6 7 8 50 4 105 -3 52 -4 96 -2 98 2 2 23 4 46 4 24 0
47 6 53 13 6 7 7 70 3 172 -4 88 -7 187 -7 220 l1 60 94 2 94 1 -9 -151 c-4
-84 -8 -186 -9 -227 l0 -75 54 -3 53 -3 -3 -107 -4 -107 55 -5 55 -5 -3 -80
c-2 -44 -5 -93 -8 -109 -7 -35 7 -46 64 -46 l42 0 0 -54 c0 -51 2 -55 39 -81
22 -15 57 -37 79 -48 87 -49 122 -92 122 -151 0 -50 -18 -118 -34 -128 -6 -4
-37 -8 -68 -8 -45 0 -58 -3 -58 -15 0 -22 46 -36 108 -33 79 4 96 29 100 152
5 131 -7 158 -95 199 -64 30 -66 32 -37 35 17 2 177 -6 355 -18 178 -11 398
-25 489 -31 91 -5 185 -11 210 -12 l45 -2 9 50 c6 28 14 53 20 57 6 4 30 4 54
1 54 -7 61 2 63 82 0 33 4 83 7 110 l7 50 47 0 c25 0 50 4 54 8 4 4 11 67 15
140 4 73 13 200 18 282 22 316 22 315 40 315 35 0 61 -38 62 -88 0 -56 18
-112 39 -123 45 -23 85 -39 100 -39 10 0 49 31 87 70 68 69 71 70 121 70 28 0
70 -7 92 -16 45 -18 92 -76 83 -103 -4 -9 -39 -61 -78 -116 -40 -55 -80 -122
-90 -150 -30 -89 0 -235 75 -365 89 -154 103 -259 49 -361 -17 -32 -55 -81
-85 -109 -46 -43 -58 -50 -94 -50 -34 0 -46 6 -74 36 -20 22 -36 52 -40 73
-14 89 -36 182 -61 258 -15 45 -25 89 -22 98 7 18 55 20 90 4 25 -11 67 1 67
20 0 13 -58 31 -123 38 -41 4 -55 9 -48 16 17 17 13 45 -8 52 -16 5 -17 11
-10 50 26 139 113 332 177 393 44 41 73 48 124 31 34 -11 41 -11 49 2 23 36 0
79 -43 79 -113 0 -316 -255 -357 -448 -26 -123 3 -410 73 -727 65 -288 93
-742 65 -1030 -24 -252 -57 -424 -131 -675 -9 -30 -44 -129 -81 -225 -25 -64
-113 -234 -160 -310 -74 -119 -155 -220 -251 -315 -47 -46 -86 -90 -86 -97 0
-35 80 -43 142 -13 23 11 43 18 45 16 7 -6 -78 -210 -107 -258 l-29 -46 23
-15 c20 -14 24 -13 43 12 51 62 63 72 83 61 18 -9 18 -8 8 20 -14 41 -4 48 19
13 49 -76 100 -112 118 -83 4 6 14 9 22 8 9 -2 17 3 19 10 1 7 0 8 -3 2 -6
-13 -33 6 -33 23 0 6 -7 19 -17 29 -15 17 -15 18 3 19 13 0 9 5 -13 15 -36 15
-45 35 -12 27 13 -4 27 2 39 15 19 20 19 21 0 45 -23 29 -26 47 -7 47 17 0 16
56 -2 72 -11 11 -13 8 -7 -15 6 -23 3 -30 -13 -34 -12 -3 -18 -10 -14 -17 4
-7 1 -7 -7 1 -10 10 -11 15 -1 27 7 8 13 36 14 61 1 49 22 80 33 51 3 -9 11
-16 18 -16 17 0 89 -77 82 -89 -4 -5 -1 -13 5 -17 6 -3 15 0 20 7 7 12 9 11
10 -1 1 -8 1 -23 0 -32 -2 -12 4 -15 18 -11 13 3 23 0 27 -10 10 -27 -15 -191
-36 -235 -11 -22 -20 -47 -20 -54 -1 -8 -6 -5 -15 6 -19 25 -31 15 -14 -11 10
-17 6 -28 -23 -74 -44 -69 -89 -119 -105 -119 -7 0 -13 -7 -13 -15 0 -11 -5
-12 -25 -5 -16 6 -25 6 -25 0 0 -6 7 -10 15 -10 8 0 15 -4 15 -9 0 -17 -30
-33 -52 -27 -13 3 -17 3 -10 0 14 -7 17 -34 3 -34 -5 0 -17 -7 -26 -17 -14
-13 -18 -14 -25 -3 -6 10 -9 7 -12 -10 -1 -13 -12 -28 -23 -34 -11 -6 -24 -17
-28 -24 -4 -6 -15 -12 -22 -12 -8 0 -15 -4 -15 -8 0 -4 -26 -21 -57 -37 -32
-17 -59 -33 -61 -37 -2 -5 -8 -8 -14 -8 -5 0 -17 -7 -25 -16 -9 -9 -26 -14
-39 -11 -15 2 -21 0 -17 -9 8 -21 -15 -26 -42 -8 -14 9 -28 14 -31 11 -3 -3 4
-8 15 -12 32 -10 26 -19 -26 -42 l-48 -21 131 -1 c109 -1 133 2 138 14 3 8 17
15 33 15 27 -1 27 -1 9 -15 -18 -13 143 -15 1347 -15 l1367 0 0 216 0 217 -37
-8 c-21 -4 -137 -9 -258 -11 l-219 -3 -12 -35 c-7 -19 -11 -36 -9 -38 9 -9
-105 -135 -140 -155 -84 -48 -175 -17 -175 58 0 78 86 179 165 193 47 9 49 18
14 52 -28 27 -36 29 -104 29 -45 0 -79 -5 -87 -13 -30 -30 -66 -9 -103 63 -18
34 -57 41 -132 23 -36 -9 -73 -14 -80 -11 -8 3 -28 30 -45 59 -50 89 -81 100
-169 63 -53 -23 -61 -21 -83 22 -6 13 -37 37 -69 53 -50 26 -69 30 -143 30
-71 1 -87 -2 -95 -16 -15 -27 -33 -22 -67 22 -43 52 -84 61 -141 28 -29 -16
-44 -20 -54 -13 -7 6 -36 24 -63 42 -56 37 -55 36 -94 86 -29 38 -121 123
-176 163 l-29 21 26 34 c31 41 95 161 133 249 15 36 32 74 37 85 36 77 143
432 234 775 l36 135 -1 305 c0 260 -20 657 -35 710 -2 8 -5 37 -7 65 l-2 50
85 0 c78 0 90 3 135 30 61 38 115 116 145 209 41 125 24 237 -63 416 -62 130
-74 163 -83 232 -7 52 -5 56 31 104 20 27 57 69 81 94 25 26 52 67 63 97 17
46 18 60 9 105 -14 65 -32 93 -83 129 -37 27 -45 29 -138 29 l-98 0 0 43 c0
23 7 132 15 242 18 246 32 488 45 790 9 190 8 252 -5 355 -20 169 -19 218 7
284 19 50 20 61 8 95 -11 36 -11 43 9 75 l23 36 -21 29 c-32 45 -89 91 -140
113 -42 18 -73 40 -160 116 l-34 30 23 47 c12 25 32 50 44 55 11 4 30 17 40
29 11 12 35 29 52 37 18 9 45 27 59 40 39 36 20 54 -59 55 -126 1 -141 7 -311
130 -184 132 -198 145 -315 299 -111 146 -137 169 -333 302 -89 61 -220 154
-291 208 -72 53 -158 115 -191 136 -91 57 -264 136 -420 189 l-140 49 -185 3
-185 4 -83 -40 c-123 -60 -172 -54 -268 33 -47 42 -56 46 -100 45 -27 0 -83
-11 -124 -25z m-335 -978 c39 -30 84 -66 101 -80 64 -52 137 -96 160 -96 19 0
26 7 31 30 7 39 24 39 133 -1 528 -190 513 -186 969 -280 106 -22 203 -37 213
-33 21 6 21 22 -3 81 -7 18 -11 35 -8 38 3 3 41 -4 85 -14 43 -11 111 -27 149
-36 39 -8 88 -20 110 -25 47 -11 264 -54 350 -69 119 -21 221 -33 344 -39 120
-7 126 -8 138 -32 8 -14 41 -83 74 -155 33 -71 74 -159 91 -195 74 -156 139
-335 163 -447 16 -76 19 -267 5 -438 -26 -338 -32 -431 -38 -645 l-7 -235 -90
3 c-49 2 -151 7 -225 13 -74 5 -211 14 -304 19 -123 7 -172 14 -180 24 -11 14
-320 107 -570 171 -147 37 -262 46 -325 24 -42 -15 -63 -56 -51 -100 5 -18 7
-35 4 -38 -3 -3 -40 -6 -82 -6 l-77 0 -5 -30 -5 -30 -87 -3 c-95 -3 -125 6
-130 40 -3 22 -5 22 -138 20 -74 -2 -149 -5 -166 -8 -26 -5 -35 0 -61 29 -17
19 -40 38 -52 42 -12 4 -108 6 -214 6 -241 -1 -367 -23 -492 -87 -66 -34 -49
-32 -555 -54 -185 -8 -221 -12 -255 -30 -67 -34 -73 -30 -79 53 -3 39 -10 126
-16 192 -6 66 -15 332 -20 590 -9 409 -14 542 -37 815 l-4 55 64 70 c94 102
324 327 452 440 61 54 153 138 205 185 159 147 355 320 360 320 3 0 37 -25 75
-54z m1745 -2487 c52 -12 111 -25 130 -29 44 -10 215 -67 255 -85 l30 -14 -45
0 c-71 -1 -291 26 -330 40 -23 8 -98 13 -218 13 -199 1 -202 2 -202 59 0 19 7
31 23 37 35 16 251 3 357 -21z m-1285 -73 c33 -7 53 -16 45 -19 -8 -3 -103 -8
-210 -11 -107 -4 -249 -9 -315 -12 -139 -7 -147 6 -20 30 114 22 124 23 290
24 91 1 174 -4 210 -12z m360 -384 c7 -176 7 -266 0 -270 -5 -4 -30 -7 -55 -7
l-45 0 3 -117 3 -118 -45 0 c-43 0 -44 1 -51 38 -5 20 -6 116 -4 212 6 273 4
452 -5 487 l-8 32 48 4 c27 2 72 3 99 3 l50 -1 10 -263z m825 253 c14 -3 106
-9 205 -15 174 -11 182 -12 250 -45 90 -43 148 -94 170 -147 14 -36 16 -61 10
-153 -14 -226 -62 -410 -110 -429 -9 -3 -160 -6 -335 -6 l-318 0 -32 37 c-42
48 -75 121 -91 201 -11 57 -29 85 -29 44 0 -15 -7 -17 -57 -12 -32 3 -58 10
-58 15 1 48 27 468 31 493 l5 34 167 -7 c92 -3 178 -8 192 -10z m-1079 -12
c11 -13 14 -81 14 -342 1 -236 5 -344 15 -390 12 -57 11 -67 -4 -95 -21 -39
-58 -63 -140 -87 -54 -17 -98 -19 -384 -19 -351 0 -361 1 -397 56 -16 25 -17
44 -11 192 19 459 41 533 179 600 135 67 316 96 613 101 83 1 104 -2 115 -16z
m-741 -19 c0 -3 -25 -28 -55 -55 -87 -81 -122 -170 -151 -395 -10 -78 -14
-175 -12 -267 3 -139 4 -147 28 -172 27 -30 79 -58 124 -69 15 -4 130 -9 254
-12 124 -2 227 -6 229 -8 2 -2 -81 -6 -184 -10 -104 -3 -295 -11 -426 -18
-130 -6 -240 -8 -244 -4 -4 4 -9 50 -11 104 -5 145 -3 142 -62 142 -27 0 -51
3 -53 8 -8 12 -28 406 -30 577 l-2 160 95 3 c52 2 165 7 250 11 214 11 250 12
250 5z m2700 -29 c129 -8 257 -16 283 -17 26 -1 50 -5 53 -9 5 -9 -33 -603
-44 -684 l-7 -50 -48 -1 c-59 0 -67 -11 -67 -84 0 -30 -3 -79 -6 -107 l-7 -53
-62 0 c-53 0 -342 18 -555 35 -108 8 -349 25 -450 31 -52 3 -110 7 -129 10
l-34 5 6 65 c6 76 12 87 36 57 25 -31 90 -73 112 -73 29 0 23 26 -11 50 -16
12 -30 26 -30 31 0 5 124 9 308 9 343 0 336 -1 372 70 33 65 60 179 74 315 23
221 11 278 -78 365 -25 24 -46 47 -46 51 0 4 21 5 48 3 26 -2 153 -10 282 -19z
m888 -4397 c7 -7 12 -22 12 -34 0 -27 -41 -88 -62 -92 -13 -3 -14 2 -5 37 9
32 8 44 -2 53 -18 19 -38 -12 -51 -81 -6 -31 -13 -68 -16 -83 -5 -26 -3 -28
25 -28 21 0 31 -5 31 -15 0 -10 -10 -15 -34 -15 -34 0 -34 0 -61 -87 -33 -106
-93 -229 -136 -278 -30 -34 -35 -36 -83 -33 -45 3 -51 6 -54 26 -7 51 47 71
71 27 12 -25 14 -25 29 -8 19 22 40 87 68 206 12 49 25 100 30 113 8 21 7 24
-15 24 -18 0 -25 5 -25 20 0 15 7 20 28 20 23 0 30 6 41 36 11 30 11 38 0 45
-14 8 -12 10 13 13 7 0 19 14 28 30 45 85 133 139 168 104z m-4584 -145 c-4
-16 -11 -38 -15 -51 -12 -33 -13 -32 31 -32 33 0 40 -3 40 -19 0 -17 -8 -20
-47 -23 l-48 -3 -27 -75 c-15 -41 -27 -81 -27 -88 -2 -23 30 -25 59 -3 35 25
40 26 40 6 0 -25 -79 -75 -119 -75 -42 0 -81 23 -81 49 0 15 43 146 96 288 15
42 26 48 82 52 20 1 22 -2 16 -26z m-362 -99 c10 -21 9 -31 -3 -52 -19 -36
-68 -43 -76 -12 -3 12 -12 20 -21 18 -29 -6 -62 -67 -107 -195 -3 -8 -23 -13
-51 -13 -33 0 -45 4 -41 13 2 6 19 59 37 117 43 140 40 135 94 138 49 3 55 -3
34 -41 -6 -12 5 -5 24 16 45 47 92 52 110 11z m4626 14 c13 -89 13 -97 -6
-134 -40 -78 -131 -144 -196 -144 -80 0 -109 36 -87 109 30 101 132 181 232
181 37 0 56 -4 57 -12z m723 2 c27 -15 24 -49 -11 -132 -16 -38 -30 -76 -30
-84 0 -18 30 -17 54 1 10 8 22 12 26 10 4 -3 11 10 14 29 9 46 56 108 110 145
99 69 194 45 152 -37 -16 -31 -75 -65 -134 -77 -30 -6 -33 -10 -30 -38 2 -24
10 -34 32 -42 23 -8 36 -5 77 18 34 19 49 23 49 14 0 -35 -100 -87 -166 -87
-38 0 -51 5 -74 30 -25 26 -29 28 -41 14 -21 -26 -66 -44 -107 -44 -71 0 -78
33 -32 142 21 49 27 75 20 82 -20 20 -64 -29 -110 -122 l-45 -92 -42 0 c-24 0
-43 4 -43 9 0 5 20 64 44 132 l44 124 47 3 c51 3 50 4 30 -53 -6 -18 -5 -17
12 3 44 54 109 76 154 52z m618 -21 c13 -24 13 -29 -2 -53 -22 -32 -66 -36
-74 -6 -14 51 -54 10 -99 -102 l-33 -83 -46 -3 c-54 -4 -55 -21 7 156 l40 112
44 0 c46 0 51 -7 33 -43 -10 -21 -9 -21 5 -3 24 30 69 57 91 54 10 -2 26 -15
34 -29z"/>
<path d="M5231 6654 c-13 -21 -19 -44 -16 -55 9 -26 74 -66 154 -94 379 -134
439 -160 803 -354 86 -46 100 -51 120 -40 34 18 47 40 48 79 0 30 -9 43 -60
91 -57 53 -60 58 -49 82 6 14 9 33 6 41 -10 25 -46 19 -59 -9 -6 -14 -15 -25
-19 -25 -5 0 -37 16 -71 35 -155 84 -515 219 -711 265 -117 27 -121 26 -146
-16z"/>
<path d="M3990 6083 c-215 -15 -528 -72 -707 -129 -62 -20 -117 -33 -123 -29
-5 3 -10 17 -10 31 0 52 -49 109 -72 86 -12 -12 7 -119 24 -139 10 -12 7 -18
-12 -34 -14 -10 -28 -19 -32 -19 -4 0 -14 -12 -21 -27 -12 -23 -12 -35 -2 -62
21 -64 42 -64 225 -7 276 87 300 94 375 106 366 58 542 92 565 109 29 22 31
58 5 97 -14 22 -21 24 -93 22 -42 -1 -97 -3 -122 -5z"/>
<path d="M5494 4720 c-52 -21 -73 -115 -32 -144 46 -32 107 -16 134 35 21 42
10 85 -26 104 -32 17 -45 18 -76 5z"/>
<path d="M3904 4655 c-43 -18 -67 -59 -59 -101 7 -40 29 -54 84 -54 31 0 44 6
60 26 24 30 28 95 8 112 -28 24 -63 30 -93 17z"/>
<path d="M8605 7508 c-214 -42 -660 -129 -990 -194 -330 -64 -602 -118 -604
-119 -8 -9 13 -25 71 -53 72 -34 137 -88 179 -145 23 -32 29 -51 29 -93 0 -29
-4 -56 -10 -59 -5 -3 -10 -35 -10 -71 0 -39 -8 -87 -20 -121 -17 -47 -18 -66
-10 -127 5 -39 12 -101 15 -137 l6 -67 52 -6 c29 -3 176 -18 327 -31 313 -29
945 -88 1189 -111 89 -8 165 -13 167 -11 2 2 3 323 2 713 l-3 710 -390 -78z"/>
<path d="M0 6827 l0 -593 248 23 c136 12 508 48 827 79 585 57 822 70 818 47
-2 -6 4 -65 12 -130 8 -65 14 -138 14 -164 l-1 -45 -57 -21 c-71 -28 -106 -37
-1226 -339 -275 -74 -530 -144 -568 -155 l-67 -20 0 -721 c0 -575 3 -718 13
-711 13 12 1675 1050 1748 1094 68 40 157 89 162 89 11 0 15 -45 5 -57 -8 -10
-6 -13 7 -13 12 0 15 -5 11 -16 -3 -9 -6 -18 -6 -20 0 -3 -4 -2 -10 1 -7 4 -7
-2 -1 -18 6 -14 7 -28 4 -31 -4 -3 28 -6 71 -6 l77 0 -6 638 c-3 350 -10 669
-16 707 -37 282 -59 532 -60 705 -1 143 -4 167 -15 155 -8 -7 -14 -21 -14 -30
0 -9 -4 -13 -10 -10 -5 3 -10 1 -10 -4 0 -6 -13 -29 -29 -51 -16 -23 -35 -63
-42 -90 -11 -45 -16 -50 -40 -50 -38 0 -212 33 -829 155 -566 112 -992 195
-1003 195 -4 0 -7 -267 -7 -593z"/>
<path d="M7236 5663 c-4 -54 -13 -188 -21 -299 -8 -110 -15 -218 -15 -240 l0
-39 55 3 c66 5 118 -19 183 -81 55 -53 82 -125 82 -216 0 -80 -17 -127 -68
-189 -30 -37 -33 -45 -21 -56 8 -7 122 -80 254 -161 132 -81 350 -216 485
-300 135 -84 360 -223 500 -310 140 -87 272 -169 293 -182 l37 -23 0 859 0
858 -42 12 c-24 6 -117 31 -208 55 -91 25 -381 103 -645 175 -624 169 -856
231 -860 231 -2 0 -6 -44 -9 -97z"/>
<path d="M1670 4773 c-21 -9 -46 -42 -76 -102 -22 -44 -26 -62 -21 -104 4 -28
11 -55 17 -61 5 -5 10 -21 10 -34 0 -13 4 -20 10 -17 6 3 10 2 10 -3 0 -17
-164 -166 -904 -822 l-715 -635 -1 -1500 c0 -824 4 -1495 8 -1490 5 6 101 161
214 345 523 854 1488 2421 1613 2620 70 112 110 170 117 170 3 0 4 -16 2 -36
-3 -27 -1 -34 8 -28 7 4 4 -2 -6 -14 -11 -12 -14 -22 -9 -22 6 0 14 -7 17 -16
4 -9 2 -13 -5 -8 -8 5 -10 -3 -7 -24 2 -17 1 -29 -4 -26 -4 3 -6 -172 -5 -388
3 -403 4 -416 49 -588 18 -68 29 -116 45 -193 3 -15 9 -27 13 -27 14 0 28 -89
20 -124 -12 -52 -77 -222 -257 -670 -90 -224 -162 -411 -159 -414 3 -3 6 0 6
6 0 9 33 12 110 12 107 0 111 1 120 24 4 13 21 33 36 45 25 19 39 22 120 20
86 -1 95 0 123 24 33 27 120 57 168 57 53 0 68 10 81 50 6 21 39 95 73 163
l61 124 -41 65 c-86 137 -176 353 -246 593 -20 72 -50 173 -66 225 -25 84 -41
146 -95 350 -17 64 -20 671 -4 855 5 61 12 146 16 191 l7 81 -68 5 c-109 9
-191 76 -268 218 -49 90 -61 153 -54 274 7 121 23 180 87 308 27 53 55 121 63
152 17 65 19 62 -89 178 -47 50 -67 81 -79 119 -8 29 -15 59 -15 66 0 14 -6
15 -30 6z"/>
<path d="M4760 3997 c-80 -28 -170 -76 -184 -99 -8 -13 -7 -21 1 -29 9 -9 23
-5 60 15 100 56 150 75 205 82 53 6 57 5 73 -20 16 -24 16 -28 1 -51 -9 -13
-16 -29 -16 -35 0 -16 47 -12 65 7 25 25 15 110 -15 135 -31 25 -109 23 -190
-5z"/>
<path d="M5138 3752 c-15 -9 -67 -65 -117 -124 -122 -144 -144 -158 -244 -158
-71 0 -88 4 -181 45 -85 37 -115 45 -163 45 -46 0 -64 -5 -82 -21 -30 -28 -25
-71 9 -80 14 -4 70 -21 125 -38 147 -45 199 -54 294 -49 96 5 132 19 237 95
79 55 130 112 155 171 11 26 33 57 50 70 24 19 27 27 19 43 -14 24 -65 25
-102 1z"/>
<path d="M4230 3692 c-90 -66 -122 -106 -114 -140 11 -45 43 -101 81 -143 l37
-41 73 4 c79 4 105 17 86 46 -11 18 -15 18 -95 7 l-47 -7 -41 63 c-22 34 -40
70 -40 80 0 10 36 48 85 89 47 39 85 75 85 80 0 24 -50 6 -110 -38z"/>
<path d="M7419 3628 c-21 -40 -113 -130 -153 -150 -21 -11 -63 -22 -93 -25
l-55 -6 6 -51 c13 -113 26 -437 28 -716 l3 -295 -32 -120 c-18 -66 -48 -178
-67 -249 l-35 -128 166 -267 c555 -892 501 -811 538 -811 27 0 42 -10 90 -62
l57 -61 93 -1 94 -1 38 -37 c35 -34 44 -38 90 -38 29 0 55 5 58 10 13 21 86
50 125 50 47 0 95 -22 110 -49 5 -11 10 -40 10 -64 l0 -45 88 -8 c80 -7 374
10 408 23 12 4 14 144 13 877 l0 871 -551 485 c-303 267 -654 576 -779 688
-126 111 -230 202 -233 202 -3 0 -11 -10 -17 -22z"/>
<path d="M5950 2849 c-47 -28 -114 -74 -149 -101 -113 -89 -239 -144 -451
-199 -159 -41 -215 -48 -370 -49 -174 -2 -210 -7 -210 -31 0 -22 -6 -22 144
-19 204 3 204 3 296 -101 l79 -90 -61 -94 -61 -95 -78 0 c-91 0 -109 -5 -109
-32 0 -20 5 -20 218 -15 169 3 240 9 322 26 216 45 337 97 424 185 90 90 98
117 108 341 10 215 8 317 -7 322 -5 1 -48 -20 -95 -48z m44 -175 l14 -99 -47
-45 c-52 -50 -181 -130 -209 -130 -10 0 -23 5 -30 12 -9 9 -12 7 -12 -9 0 -33
-28 -36 -47 -5 -9 15 -18 29 -19 31 -2 1 -7 0 -13 -3 -7 -5 -7 -15 0 -33 5
-14 6 -30 2 -34 -12 -12 -243 -69 -280 -69 -21 0 -37 7 -47 22 -8 11 -36 43
-61 69 -26 27 -44 53 -40 59 3 6 10 8 15 5 4 -3 55 9 113 25 131 38 327 126
508 228 20 11 47 26 60 34 13 7 35 21 48 31 13 9 26 16 28 14 2 -2 9 -48 17
-103z m24 -213 c4 -56 -43 -159 -89 -194 -34 -26 -126 -54 -444 -137 -88 -23
-170 -45 -183 -51 -32 -13 -62 -11 -62 4 0 6 24 48 53 92 l52 80 57 7 c32 4
99 21 150 38 50 17 94 27 98 23 4 -4 13 -25 20 -45 7 -22 18 -38 27 -38 10 0
13 5 8 18 -27 68 -9 127 26 84 23 -29 28 -28 26 5 -2 29 -5 27 125 89 43 20
85 45 94 56 25 27 39 17 42 -31z"/>
<path d="M5887 1438 c-19 -24 -68 -95 -110 -158 -91 -139 -138 -194 -220 -256
-111 -84 -181 -110 -362 -134 -88 -11 -223 -30 -300 -41 -117 -17 -175 -20
-350 -17 l-210 4 -76 47 c-74 45 -95 65 -184 171 -51 60 -85 79 -119 66 -39
-14 -32 -36 19 -63 17 -8 59 -49 94 -91 98 -117 137 -140 284 -172 81 -17 431
-20 535 -4 37 5 153 22 257 36 211 28 232 33 325 77 123 57 149 79 268 227
169 208 229 301 216 334 -10 26 -31 19 -67 -26z"/>
<path d="M6209 564 c-30 -24 -86 -61 -125 -81 -66 -34 -71 -39 -64 -62 3 -14
11 -26 16 -26 5 0 15 -4 22 -9 7 -4 14 -6 16 -5 54 78 146 138 146 97 0 -15
15 0 15 15 0 7 -5 14 -12 17 -9 4 -7 9 7 17 16 11 18 10 14 -2 -4 -10 0 -15
11 -15 9 0 14 4 10 9 -3 5 -1 12 5 16 12 7 14 62 2 69 -5 3 -33 -15 -63 -40z"/>
<path d="M8355 417 c-49 -28 -96 -101 -102 -161 -7 -54 14 -71 49 -40 27 24
100 180 96 205 -3 17 -5 17 -43 -4z"/>
<path d="M5755 358 c-16 -6 -36 -15 -42 -20 -7 -6 -38 -18 -70 -28 -53 -16
-58 -20 -61 -48 -2 -23 2 -34 18 -42 12 -7 26 -8 33 -3 7 5 38 17 69 27 40 13
60 25 64 40 3 12 17 36 31 54 21 28 22 32 6 31 -10 0 -31 -5 -48 -11z"/>
<path d="M3608 294 c-15 -33 -3 -54 30 -54 15 0 33 -5 38 -10 9 -9 63 -16 163
-23 19 -2 26 4 32 27 5 17 7 31 6 32 -1 1 -60 13 -130 26 l-129 25 -10 -23z"/>
<path d="M5104 230 c-22 -5 -58 -20 -79 -34 -21 -15 -49 -29 -62 -32 -29 -8
-81 13 -94 37 -8 17 -22 19 -105 19 -83 0 -101 -3 -147 -27 -73 -37 -136 -37
-174 0 -39 36 -82 36 -145 -4 -63 -38 -92 -36 -96 9 -4 41 -27 42 -41 2 -7
-20 -17 -30 -30 -30 -13 0 -21 -7 -21 -16 0 -12 4 -14 13 -7 6 6 32 8 57 6 52
-5 818 -16 880 -12 8 0 24 -2 36 -6 18 -6 24 1 42 44 12 27 22 52 22 55 0 7 0
7 -56 -4z"/>
</g>
</svg>
